<svg height="512" viewBox="0 0 512 512" width="512" xmlns="http://www.w3.org/2000/svg"><g id="_26_Cleaned_Table" data-name="26 Cleaned Table"><g id="Glyph"><path d="m352 272h16v16h-16z"/><path d="m352 320h16v16h-16z"/><path d="m328 296h16v16h-16z"/><path d="m376 296h16v16h-16z"/><path d="m280 48h16v16h-16z"/><path d="m280 96h16v16h-16z"/><path d="m256 72h16v16h-16z"/><path d="m304 72h16v16h-16z"/><path d="m24 64h16v16h-16z"/><path d="m24 112h16v16h-16z"/><path d="m0 88h16v16h-16z"/><path d="m48 88h16v16h-16z"/><path d="m152 128h16v16h-16z"/><path d="m152 176h16v16h-16z"/><path d="m128 152h16v16h-16z"/><path d="m176 152h16v16h-16z"/><path d="m431.05 6.078c-34.394 30.548-74.65 25.35-79.05 25.922v55.168c0 41.581 30.335 79.4 77.283 96.356l2.717.982 2.717-.982c46.948-16.953 77.283-54.775 77.283-96.356v-55.168c-3.462-.775-29.036 5.442-80.95-25.922zm40.95 97.922h-32v32h-16v-32h-32v-16h32v-32h16v32h32z"/><path d="m0 208v16h16v32h16v256h48v-256h352v256h48v-256h16v-32h16v-16zm64 288h-16v-240h16zm400 0h-16v-240h16z"/></g></g></svg>