<?xml version="1.0"?>
<svg xmlns="http://www.w3.org/2000/svg" id="Outline" viewBox="0 0 512 512" width="512" height="512"><path d="M331.131,397.871a92.14,92.14,0,0,0-58.261-71.794L287.692,274.2A8,8,0,0,0,280,264H200a8,8,0,0,0-7.692,10.2l14.822,51.879a92.14,92.14,0,0,0-58.261,71.794L143.4,432.514A48,48,0,0,0,190.812,488h98.376A48,48,0,0,0,336.6,432.514ZM210.606,280h58.788l-11.912,41.693a91.106,91.106,0,0,0-34.964,0ZM313.517,460.788A31.961,31.961,0,0,1,289.188,472H190.812A32,32,0,0,1,159.2,435.01l5.47-34.643A76.236,76.236,0,0,1,223.094,337.9l-29.6,41.446,13.02,9.3L232,352.964V392h16V352.964l25.49,35.686,13.02-9.3-29.6-41.446a76.236,76.236,0,0,1,58.421,62.463l5.47,34.643A31.957,31.957,0,0,1,313.517,460.788Z"/><path d="M456.717,326.768a105.272,105.272,0,0,0-71.633-89.441L399.692,186.2A8,8,0,0,0,392,176H312a8,8,0,0,0-7.692,10.2l14.606,51.122A104.919,104.919,0,0,0,291.39,251.2l9.22,13.076a88.658,88.658,0,0,1,32.216-14.2l-34.9,40.717,12.148,10.412L344,261.626V312h16V261.626l33.926,39.58,12.148-10.412L371.168,250.07A88.912,88.912,0,0,1,440.8,328.359l10.846,108.456A32,32,0,0,1,419.8,472H344v16h75.8a48,48,0,0,0,47.762-52.776ZM322.606,192h58.788l-11.855,41.491a104.63,104.63,0,0,0-35.084-.02Z"/><path d="M444.088,235.482a137.294,137.294,0,0,0-32.62-21.945l-6.936,14.418a121.348,121.348,0,0,1,67.545,92.533l15.847-2.207A137.428,137.428,0,0,0,444.088,235.482Z"/><path d="M68.765,461.37a32.041,32.041,0,0,1-7.994-24.828L82.122,240.114A134.447,134.447,0,0,1,198.791,121.1l-45.106,57.993,12.63,9.822L208,135.316V208h16V135.316l41.685,53.6,12.63-9.822-45.088-57.97a135.353,135.353,0,0,1,80.944,41.361l11.659-10.957a151.219,151.219,0,0,0-64.992-40.641l22.17-76.659A8,8,0,0,0,275.323,24h-120A8,8,0,0,0,147.6,34.081l20.9,77.547A150.447,150.447,0,0,0,66.215,238.386L44.865,434.813A48,48,0,0,0,92.583,488H136V472H92.583A32.042,32.042,0,0,1,68.765,461.37Zm97-421.37h98.918l-19.354,66.921A149.6,149.6,0,0,0,216,104a151.653,151.653,0,0,0-32.069,3.416Z"/><path d="M50.309,236.656a167.194,167.194,0,0,1,66.452-116L107.238,107.8A183.237,183.237,0,0,0,34.4,234.928l-4.8,44.208L45.5,280.864Z"/><rect x="26.895" y="296" width="16.094" height="16" transform="translate(-271.054 305.896) rotate(-83.798)"/></svg>
