<svg id="Layer_3" enable-background="new 0 0 64 64" height="512" viewBox="0 0 64 64" width="512" xmlns="http://www.w3.org/2000/svg"><path d="m63 25c0-.552-.447-1-1-1h-3v-2c0-.552-.447-1-1-1h-2.586l-5.707-5.707c-.195-.195-.451-.293-.707-.293s-.512.098-.707.293l-5.707 5.707h-4.586-2.586l-5.707-5.707c-.391-.391-1.023-.391-1.414 0l-5.707 5.707h-.172l-1-1 5.293-5.293c.391-.391.391-1.023 0-1.414l-6-6c-.391-.391-1.023-.391-1.414 0l-6 6c-.391.391-.391 1.023 0 1.414l1.293 1.293-5 5h-3.586c-.553 0-1 .448-1 1v2h-3c-.553 0-1 .448-1 1 0 7.679 3.483 14.557 8.948 19.147l1.054 17.912c.031.528.469.941.998.941h40c.529 0 .967-.413.998-.941l1.054-17.912c5.465-4.59 8.948-11.468 8.948-19.147zm-14-7.586 3.586 3.586h-7.172zm-20 0 3.586 3.586h-7.172zm-9-8 4.586 4.586-4.586 4.586-3.293-3.293-1.293-1.293zm-4 8 3.293 3.293.293.293h-7.172zm-9 5.586h50v4h-50zm45.107 20.148c-3.652 2.846-8.181 4.615-13.107 4.827v-.975c0-.553-.447-1-1-1h-12c-.553 0-1 .447-1 1v.975c-4.927-.212-9.455-1.982-13.107-4.827l-.833-14.148h41.88zm-15.107 4.852v2h-10v-2zm-33.979-22h1.979v2c0 .552.447 1 1 1h3.057l.723 12.283c-3.963-3.948-6.502-9.323-6.759-15.283zm9.922 35-.118-2h38.349l-.118 2zm38.349-4h-38.584l-.663-11.267c3.729 2.518 8.172 4.052 12.955 4.242v1.025c0 .553.447 1 1 1h12c.553 0 1-.447 1-1v-1.025c4.783-.189 9.226-1.724 12.955-4.242zm3.651-28h3.057c.553 0 1-.448 1-1v-2h1.979c-.256 5.96-2.796 11.335-6.758 15.283z"/><path d="m44.707 14.707c.391-.391.391-1.023 0-1.414l-6-6-6-6c-.391-.391-1.023-.391-1.414 0l-6 6c-.391.391-.391 1.023 0 1.414l6 6 6 6c.195.195.451.293.707.293s.512-.098.707-.293zm-12.707-11.293 4.586 4.586-4.586 4.586-4.586-4.586zm1.414 10.586 4.586-4.586 4.586 4.586-4.586 4.586z"/><path d="m55.707 8.707c.391-.391.391-1.023 0-1.414l-6-6c-.391-.391-1.023-.391-1.414 0l-6 6c-.391.391-.391 1.023 0 1.414l6 6c.195.195.451.293.707.293s.512-.098.707-.293zm-11.293-.707 4.586-4.586 4.586 4.586-4.586 4.586z"/></svg>