<svg id="Capa_1" enable-background="new 0 0 512 512" height="512" viewBox="0 0 512 512" width="512" xmlns="http://www.w3.org/2000/svg"><g><path d="m502 41.737h-111.535v-13.223c0-5.522-4.477-10-10-10h-45.191c-5.523 0-10 4.478-10 10v13.224h-138.547v-13.224c0-5.522-4.477-10-10-10h-45.191c-5.523 0-10 4.478-10 10v13.224h-111.536c-5.523 0-10 4.478-10 10s4.477 10 10 10h111.535v34.294c-27.525 7.987-46.783 33.18-46.783 62.633v115.808c0 5.522 4.477 10 10 10h55.099v105.916c0 5.522 4.477 10 10 10h212.298c5.523 0 10-4.478 10-10v-105.916h55.099c5.523 0 10-4.478 10-10v-115.808c0-29.444-19.261-54.644-46.783-62.633v-34.295h111.535c5.523 0 10-4.478 10-10s-4.477-10-10-10zm-156.727-3.223h25.191v68.776h-25.191zm-138.884 74.903h99.222v4.231c0 27.355-22.255 49.61-49.611 49.61s-49.611-22.255-49.611-49.61zm118.884-51.68v31.68h-138.546v-31.68zm-183.738-23.223h25.191v68.776h-25.191zm275.713 120.151v105.808h-45.099v-38.593c0-5.522-4.477-10-10-10s-10 4.478-10 10v154.509h-192.298v-154.509c0-5.522-4.477-10-10-10s-10 4.478-10 10v38.593h-45.099v-105.808c0-18.36 10.77-34.33 26.783-41.396v.021c0 5.522 4.477 10 10 10h45.191c4.715 0 8.657-3.268 9.713-7.658 1.056 37.467 31.842 67.627 69.561 67.627s68.504-30.16 69.561-67.627c1.056 4.391 4.998 7.658 9.713 7.658h45.191c5.523 0 10-4.478 10-10v-.02c16.011 7.068 26.783 23.04 26.783 41.395z"/><path d="m262.944 416.228c-3.874-3.738-10.014-3.738-13.888 0-6.314 6.094-26.917 27.23-26.917 43.398 0 18.671 15.19 33.86 33.861 33.86s33.861-15.189 33.861-33.86c0-16.168-20.603-37.305-26.917-43.398zm-6.944 57.258c-7.643 0-13.861-6.218-13.861-13.86 0-3.629 6.037-12.844 13.861-21.718 7.825 8.876 13.861 18.089 13.861 21.718 0 7.643-6.218 13.86-13.861 13.86z"/><path d="m344.331 416.228c-3.874-3.738-10.014-3.738-13.888 0-6.314 6.094-26.917 27.23-26.917 43.398 0 18.671 15.19 33.86 33.86 33.86 18.671 0 33.861-15.189 33.861-33.86.001-16.168-20.601-37.305-26.916-43.398zm-6.944 57.258c-7.643 0-13.86-6.218-13.86-13.86 0-3.629 6.037-12.844 13.86-21.718 7.825 8.876 13.861 18.089 13.861 21.718 0 7.643-6.218 13.86-13.861 13.86z"/><path d="m181.557 416.228c-3.875-3.737-10.013-3.739-13.888 0-6.314 6.094-26.917 27.23-26.917 43.398 0 18.671 15.19 33.86 33.861 33.86 18.67 0 33.86-15.189 33.86-33.86 0-16.168-20.602-37.305-26.916-43.398zm-6.944 57.258c-7.643 0-13.861-6.218-13.861-13.86 0-3.629 6.035-12.84 13.856-21.713 7.425 8.43 13.865 17.8 13.865 21.713 0 7.643-6.218 13.86-13.86 13.86z"/></g></svg>